<svg width="31" height="31" viewBox="0 0 31 31" fill="none" xmlns="http://www.w3.org/2000/svg">
<path fill-rule="evenodd" clip-rule="evenodd" d="M7.54386 12.5731C6.16081 12.5731 5.02924 13.7046 5.02924 15.0877C5.02924 16.4707 6.16081 17.6023 7.54386 17.6023C8.9269 17.6023 10.0585 16.4707 10.0585 15.0877C10.0585 13.7046 8.9269 12.5731 7.54386 12.5731ZM22.6316 12.5731C21.2485 12.5731 20.117 13.7046 20.117 15.0877C20.117 16.4707 21.2485 17.6023 22.6316 17.6023C24.0146 17.6023 25.1462 16.4707 25.1462 15.0877C25.1462 13.7046 24.0146 12.5731 22.6316 12.5731ZM12.5731 15.0877C12.5731 13.7046 13.7047 12.5731 15.0877 12.5731C16.4708 12.5731 17.6023 13.7046 17.6023 15.0877C17.6023 16.4707 16.4708 17.6023 15.0877 17.6023C13.7047 17.6023 12.5731 16.4707 12.5731 15.0877Z" fill="#4F4F4F"/>
</svg>
